<svg width="28" height="17" viewBox="0 0 28 17" fill="none" xmlns="http://www.w3.org/2000/svg">
<path d="M22.1667 14.5714V17H8.16667V14.5714C8.16667 14.5714 8.16667 9.71429 15.1667 9.71429C22.1667 9.71429 22.1667 14.5714 22.1667 14.5714ZM18.6667 3.64286C18.6667 2.92237 18.4614 2.21806 18.0768 1.619C17.6922 1.01993 17.1456 0.553017 16.5061 0.277298C15.8665 0.0015784 15.1628 -0.0705623 14.4839 0.0699981C13.8049 0.210559 13.1813 0.557507 12.6918 1.06697C12.2023 1.57643 11.869 2.22553 11.7339 2.93217C11.5989 3.63882 11.6682 4.37127 11.9331 5.03692C12.198 5.70256 12.6466 6.2715 13.2222 6.67178C13.7977 7.07206 14.4744 7.28572 15.1667 7.28572C16.0949 7.28572 16.9852 6.90192 17.6415 6.21875C18.2979 5.53558 18.6667 4.609 18.6667 3.64286ZM22.4 9.78714C23.0377 10.3995 23.5519 11.138 23.9124 11.9594C24.273 12.7808 24.4727 13.6688 24.5 14.5714V17H28V14.5714C28 14.5714 28 10.3821 22.4 9.78714ZM21 1.38567e-06C20.6475 0.000220945 20.2972 0.0575747 19.9617 0.170001C20.6442 1.18875 21.0102 2.40087 21.0102 3.64286C21.0102 4.88485 20.6442 6.09697 19.9617 7.11571C20.2972 7.22814 20.6475 7.2855 21 7.28572C21.9283 7.28572 22.8185 6.90192 23.4749 6.21875C24.1313 5.53558 24.5 4.609 24.5 3.64286C24.5 2.67671 24.1313 1.75014 23.4749 1.06697C22.8185 0.383801 21.9283 1.38567e-06 21 1.38567e-06ZM9.33333 6.07143H5.83333V2.42857H3.5V6.07143H0V8.5H3.5V12.1429H5.83333V8.5H9.33333V6.07143Z" fill="black"/>
</svg>
