<svg width="157" height="29" viewBox="0 0 157 29" fill="none" xmlns="http://www.w3.org/2000/svg">
<path d="M104 29C105.892 29 107.427 27.4332 107.427 25.5H100.573C100.573 27.4332 102.108 29 104 29ZM115.539 20.8127C114.504 19.6774 112.567 17.9695 112.567 12.375C112.567 8.12578 109.649 4.72422 105.713 3.88969V2.75C105.713 1.78367 104.946 1 104 1C103.054 1 102.287 1.78367 102.287 2.75V3.88969C98.3514 4.72422 95.4329 8.12578 95.4329 12.375C95.4329 17.9695 93.4963 19.6774 92.4613 20.8127C92.1399 21.1655 91.9974 21.5871 92 22C92.0059 22.8969 92.6954 23.75 93.7197 23.75H114.28C115.305 23.75 115.995 22.8969 116 22C116.003 21.5871 115.86 21.1649 115.539 20.8127Z" fill="black"/>
<path d="M135 28C135 28 133 28 133 25.6667C133 23.3333 135 16.3333 145 16.3333C155 16.3333 157 23.3333 157 25.6667C157 28 155 28 155 28H135ZM145 14C146.591 14 148.117 13.2625 149.243 11.9497C150.368 10.637 151 8.85651 151 7C151 5.14348 150.368 3.36301 149.243 2.05025C148.117 0.737498 146.591 0 145 0C143.409 0 141.883 0.737498 140.757 2.05025C139.632 3.36301 139 5.14348 139 7C139 8.85651 139.632 10.637 140.757 11.9497C141.883 13.2625 143.409 14 145 14Z" fill="black"/>
<path d="M37.5 26.3125V2.6875H65.625C66.8682 2.6875 68.0605 2.86529 68.9396 3.18176C69.8186 3.49822 70.3125 3.92745 70.3125 4.375V24.625C70.3125 25.0726 69.8186 25.5018 68.9396 25.8182C68.0605 26.1347 66.8682 26.3125 65.625 26.3125H37.5ZM65.625 28C68.1114 28 70.496 27.6444 72.2541 27.0115C74.0123 26.3785 75 25.5201 75 24.625V4.375C75 3.47989 74.0123 2.62145 72.2541 1.98851C70.496 1.35558 68.1114 1 65.625 1H9.375C6.8886 1 4.50403 1.35558 2.74587 1.98851C0.987721 2.62145 0 3.47989 0 4.375L0 24.625C0 25.5201 0.987721 26.3785 2.74587 27.0115C4.50403 27.6444 6.8886 28 9.375 28H65.625Z" fill="black"/>
<path d="M10.7617 20V11.4688H13.75C14.7852 11.4688 15.5703 11.668 16.1055 12.0664C16.6406 12.4609 16.9082 13.041 16.9082 13.8066C16.9082 14.2246 16.8008 14.5938 16.5859 14.9141C16.3711 15.2305 16.0723 15.4629 15.6895 15.6113C16.127 15.7207 16.4707 15.9414 16.7207 16.2734C16.9746 16.6055 17.1016 17.0117 17.1016 17.4922C17.1016 18.3125 16.8398 18.9336 16.3164 19.3555C15.793 19.7773 15.0469 19.9922 14.0781 20H10.7617ZM12.5195 16.2852V18.5879H14.0254C14.4395 18.5879 14.7617 18.4902 14.9922 18.2949C15.2266 18.0957 15.3438 17.8223 15.3438 17.4746C15.3438 16.6934 14.9395 16.2969 14.1309 16.2852H12.5195ZM12.5195 15.043H13.8203C14.707 15.0273 15.1504 14.6738 15.1504 13.9824C15.1504 13.5957 15.0371 13.3184 14.8105 13.1504C14.5879 12.9785 14.2344 12.8926 13.75 12.8926H12.5195V15.043ZM20.7227 11.4688L22.9141 17.6562L25.0938 11.4688H27.4023V20H25.6387V17.668L25.8145 13.6426L23.5117 20H22.3047L20.0078 13.6484L20.1836 17.668V20H18.4258V11.4688H20.7227Z" fill="white"/>
<path d="M46.7617 20V11.4688H49.75C50.7852 11.4688 51.5703 11.668 52.1055 12.0664C52.6406 12.4609 52.9082 13.041 52.9082 13.8066C52.9082 14.2246 52.8008 14.5938 52.5859 14.9141C52.3711 15.2305 52.0723 15.4629 51.6895 15.6113C52.127 15.7207 52.4707 15.9414 52.7207 16.2734C52.9746 16.6055 53.1016 17.0117 53.1016 17.4922C53.1016 18.3125 52.8398 18.9336 52.3164 19.3555C51.793 19.7773 51.0469 19.9922 50.0781 20H46.7617ZM48.5195 16.2852V18.5879H50.0254C50.4395 18.5879 50.7617 18.4902 50.9922 18.2949C51.2266 18.0957 51.3438 17.8223 51.3438 17.4746C51.3438 16.6934 50.9395 16.2969 50.1309 16.2852H48.5195ZM48.5195 15.043H49.8203C50.707 15.0273 51.1504 14.6738 51.1504 13.9824C51.1504 13.5957 51.0371 13.3184 50.8105 13.1504C50.5879 12.9785 50.2344 12.8926 49.75 12.8926H48.5195V15.043ZM56.2949 20H54.5371V11.4688H56.2949V20Z" fill="black"/>
</svg>
