<svg width="20" height="20" viewBox="0 0 20 20" fill="none" xmlns="http://www.w3.org/2000/svg">
<path d="M15.13 9.47368L16.39 8.14737C16.83 7.68421 17.39 7.43158 18 7.36842V6.31579L12 0H2C0.89 0 0 0.936842 0 2.10526V16.8421C0 17.4005 0.210714 17.9359 0.585786 18.3308C0.960859 18.7256 1.46957 18.9474 2 18.9474H8V16.9789L8.13 16.8421H2V2.10526H9V9.47368H15.13ZM11 1.57895L16.5 7.36842H11V1.57895ZM16.13 11.4L18.17 13.5474L12.04 20H10V17.8526L16.13 11.4ZM19.85 11.7789L18.87 12.8105L16.83 10.6632L17.81 9.63158C18 9.42105 18.33 9.42105 18.53 9.63158L19.85 11.0211C20.05 11.2316 20.05 11.5789 19.85 11.7789Z" fill="black"/>
</svg>
